<svg width="35" height="35" viewBox="0 0 35 35" fill="none" xmlns="http://www.w3.org/2000/svg">
<rect width="35" height="35" rx="17.5" fill="#FFECEC"/>
<path fill-rule="evenodd" clip-rule="evenodd" d="M17.5001 16.7361C18.1077 16.7361 18.6904 16.4948 19.12 16.0651C19.5496 15.6355 19.791 15.0528 19.791 14.4452C19.791 13.8376 19.5496 13.2549 19.12 12.8253C18.6904 12.3957 18.1077 12.1543 17.5001 12.1543C16.8925 12.1543 16.3098 12.3957 15.8802 12.8253C15.4506 13.2549 15.2092 13.8376 15.2092 14.4452C15.2092 15.0528 15.4506 15.6355 15.8802 16.0651C16.3098 16.4948 16.8925 16.7361 17.5001 16.7361ZM14.2538 23.6088C13.0945 23.6088 12.1179 22.6343 12.5615 21.5632C12.8302 20.9147 13.2239 20.3254 13.7203 19.829C14.2167 19.3327 14.8059 18.9389 15.4545 18.6703C16.103 18.4017 16.7981 18.2634 17.5001 18.2634C18.2021 18.2634 18.8972 18.4017 19.5457 18.6703C20.1943 18.9389 20.7835 19.3327 21.2799 19.829C21.7763 20.3254 22.17 20.9147 22.4387 21.5632C22.8823 22.6343 21.9057 23.6088 20.7464 23.6088H14.2538Z" fill="#DC7000"/>
</svg>
